<svg width="511" height="152" viewBox="0 0 511 152" fill="none" xmlns="http://www.w3.org/2000/svg"><path d="M78.17 124.2c-26.649 0-55.283-5-55.283-16s28.634-16 55.283-16c26.648 0 55.282 5 55.282 16 .105 11-28.634 16-55.282 16zm0-25.7c-13.586 0-26.336 1.3-35.95 3.7-10.45 2.6-12.75 5.4-12.75 6 0 .6 2.3 3.4 12.75 6 9.51 2.4 22.364 3.7 35.95 3.7 13.585 0 26.335-1.3 35.949-3.7 10.451-2.6 12.75-5.4 12.75-6 0-.6-2.299-3.4-12.75-6-9.51-2.4-22.364-3.7-35.95-3.7zm0-39c-26.649 0-55.283-5-55.283-16s28.634-16 55.283-16c26.648 0 55.282 5 55.282 16 .105 11-28.634 16-55.282 16zm0-25.7c-13.586 0-26.336 1.3-35.95 3.7-10.45 2.6-12.75 5.4-12.75 6 0 .6 2.3 3.4 12.75 6 9.51 2.4 22.364 3.7 35.95 3.7 13.585 0 26.335-1.3 35.949-3.7 10.451-2.6 12.75-5.4 12.75-6 0-.6-2.299-3.4-12.75-6-9.51-2.4-22.364-3.7-35.95-3.7z" fill="#fff"/><path d="M124.151 71.3c-37.726 42.3-61.135 48.1-66.36 48.1-.313 0-28.425-5.9-28.53-5.9l-.94-5.3c22.468-2.3 63.748-9.5 95.83-36.9z" fill="#fff"/><path d="M86.112 87.3c7.838-3.5 27.275-20.8 25.081-32.8l22.259-11c.105 28.5-40.756 40.4-47.34 43.8zM195.6 101.4h45.8v-3.8c0-4.2.5-6.9 1.4-8.1 1-1.2 2.7-1.9 5.2-1.9 2.1 0 3.7.5 4.8 1.5 1 1 1.6 2.4 1.6 4.4v12.1c0 2.2-.8 3.8-2.4 4.7-1.6 1-4.4 1.4-8.5 1.4h-55.7c-3.4 0-6-.6-7.8-1.7-1.8-1.1-2.7-2.8-2.7-4.9 0-1.3.4-2.6 1.1-3.7.8-1.2 2.6-2.9 5.4-5.1l52.6-41.8h-43.9v3.7c0 4.3-.5 7-1.4 8.2-1 1.2-2.7 1.8-5.2 1.8-2.2 0-3.9-.5-5-1.5s-1.7-2.4-1.7-4.4V50c0-2 1-3.5 3.1-4.4 2.1-.9 5.3-1.4 9.7-1.4h49.2c4.3 0 7.5.6 9.7 1.9 2.2 1.2 3.3 3.1 3.3 5.5 0 1.4-.7 3-2.1 4.8-1.4 1.8-3.4 3.7-6.2 5.8l-50.3 39.2zM376.9 78c0 10.4-4.5 19-13.4 25.6-9 6.6-20.6 9.9-34.9 9.9-14.2 0-25.8-3.3-34.8-9.9-9-6.6-13.4-15.2-13.4-25.6 0-10.4 4.5-18.9 13.4-25.5 9-6.6 20.5-9.9 34.8-9.9 14.2 0 25.8 3.3 34.8 9.9 9 6.6 13.5 15.1 13.5 25.5zm-48.3 25.2c9.4 0 17.2-2.4 23.2-7.1 6-4.7 9.1-10.8 9.1-18.1 0-7.3-3-13.4-9.1-18.2-6.1-4.8-13.8-7.2-23.2-7.2-9.4 0-17.1 2.4-23.1 7.2-6 4.8-9.1 10.9-9.1 18.2 0 7.4 3 13.5 9 18.2 6.1 4.6 13.8 7 23.2 7zm138.2-54.9c3 0 5.2.4 6.6 1.2 1.4.8 2.1 2.1 2.1 3.9 0 1.7-.6 3-1.9 3.8-1.3.9-3.2 1.3-5.8 1.3h-37.3V83c0 8 1.3 13.3 3.9 15.8 2.6 2.5 7.1 3.8 13.4 3.8 5.6 0 12.3-1.3 20.1-3.9 7.8-2.6 12.6-3.9 14.4-3.9 1.7 0 3.2.5 4.4 1.5 1.2 1 1.8 2.2 1.8 3.6 0 1.6-.8 3-2.3 4.2-1.5 1.2-4.1 2.4-7.7 3.5-6 1.9-11.4 3.3-16.2 4.2-4.8.9-9.3 1.3-13.6 1.3-7.2 0-13.2-.9-18.1-2.7-4.9-1.8-8.5-4.5-10.9-8.1-1.2-1.7-2.1-3.7-2.6-6.1-.5-2.3-.8-5.9-.8-10.8V58.6h-15.6c-2.6 0-4.4-.4-5.6-1.2-1.2-.8-1.7-2.1-1.7-3.9 0-2 .8-3.4 2.4-4.1 1.6-.7 5-1.1 10.2-1.1h10.4V29.4c0-2.1.6-3.6 1.7-4.6 1.1-1 2.9-1.5 5.3-1.5 2.7 0 4.6.6 5.6 1.8 1 1.2 1.6 4 1.6 8.3v14.8h36.2v.1z" fill="#fff"/></svg>